<svg width="87" height="18" viewBox="0 0 87 18" fill="none" xmlns="http://www.w3.org/2000/svg">
<path d="M8.7 0L10.6533 6.01155H16.9742L11.8605 9.7269L13.8137 15.7384L8.7 12.0231L3.58627 15.7384L5.53954 9.7269L0.425808 6.01155H6.74673L8.7 0Z" fill="#FFC43A"/>
<path d="M26.1004 0L28.0537 6.01155H34.3746L29.2609 9.7269L31.2141 15.7384L26.1004 12.0231L20.9867 15.7384L22.9399 9.7269L17.8262 6.01155H24.1471L26.1004 0Z" fill="#FFC43A"/>
<path d="M43.4998 0L45.4531 6.01155H51.774L46.6603 9.7269L48.6135 15.7384L43.4998 12.0231L38.3861 15.7384L40.3393 9.7269L35.2256 6.01155H41.5465L43.4998 0Z" fill="#FFC43A"/>
<path d="M60.9002 0L62.8535 6.01155H69.1744L64.0607 9.7269L66.0139 15.7384L60.9002 12.0231L55.7865 15.7384L57.7397 9.7269L52.626 6.01155H58.9469L60.9002 0Z" fill="#FFC43A"/>
<mask id="mask0_748_1093" style="mask-type:alpha" maskUnits="userSpaceOnUse" x="70" y="0" width="17" height="16">
<path d="M78.2996 0L80.2529 6.01155H86.5738L81.4601 9.7269L83.4133 15.7384L78.2996 12.0231L73.1859 15.7384L75.1391 9.7269L70.0254 6.01155H76.3463L78.2996 0Z" fill="#FFC43A"/>
</mask>
<g mask="url(#mask0_748_1093)">
<path d="M78.2996 0L80.2529 6.01155H86.5738L81.4601 9.7269L83.4133 15.7384L78.2996 12.0231L73.1859 15.7384L75.1391 9.7269L70.0254 6.01155H76.3463L78.2996 0Z" fill="#FFC43A"/>
<rect x="79.4348" y="-0.945801" width="7.56522" height="17.9674" fill="#AEADAD"/>
</g>
</svg>
